<svg width="1280" height="360" viewBox="0 0 1280 360" fill="none" xmlns="http://www.w3.org/2000/svg" role="img" aria-labelledby="title desc">
  <title id="title">徐同学 profile header</title>
  <desc id="desc">A clean developer profile banner for AI tools, data systems and full-stack products.</desc>
  <defs>
    <linearGradient id="bg" x1="0" y1="0" x2="1280" y2="360" gradientUnits="userSpaceOnUse">
      <stop offset="0" stop-color="#111827"/>
      <stop offset="0.45" stop-color="#102A43"/>
      <stop offset="1" stop-color="#092E2B"/>
    </linearGradient>
    <linearGradient id="accent" x1="176" y1="70" x2="1044" y2="310" gradientUnits="userSpaceOnUse">
      <stop stop-color="#60A5FA"/>
      <stop offset="0.52" stop-color="#2DD4BF"/>
      <stop offset="1" stop-color="#FBBF24"/>
    </linearGradient>
    <radialGradient id="glowA" cx="0" cy="0" r="1" gradientUnits="userSpaceOnUse" gradientTransform="translate(1010 74) rotate(113) scale(245 390)">
      <stop stop-color="#2DD4BF" stop-opacity="0.44"/>
      <stop offset="1" stop-color="#2DD4BF" stop-opacity="0"/>
    </radialGradient>
    <radialGradient id="glowB" cx="0" cy="0" r="1" gradientUnits="userSpaceOnUse" gradientTransform="translate(198 304) rotate(-28) scale(360 220)">
      <stop stop-color="#60A5FA" stop-opacity="0.38"/>
      <stop offset="1" stop-color="#60A5FA" stop-opacity="0"/>
    </radialGradient>
    <filter id="softShadow" x="-20%" y="-20%" width="140%" height="140%" color-interpolation-filters="sRGB">
      <feDropShadow dx="0" dy="18" stdDeviation="22" flood-color="#020617" flood-opacity="0.28"/>
    </filter>
    <pattern id="grid" width="36" height="36" patternUnits="userSpaceOnUse">
      <path d="M 36 0 L 0 0 0 36" stroke="#E5E7EB" stroke-opacity="0.055" stroke-width="1"/>
    </pattern>
  </defs>

  <rect width="1280" height="360" rx="28" fill="url(#bg)"/>
  <rect width="1280" height="360" rx="28" fill="url(#grid)"/>
  <rect width="1280" height="360" rx="28" fill="url(#glowA)"/>
  <rect width="1280" height="360" rx="28" fill="url(#glowB)"/>

  <path d="M86 262C196 160 293 143 402 188C506 231 597 238 692 166C790 92 901 82 1046 138C1112 164 1163 159 1210 127" stroke="url(#accent)" stroke-width="2.5" stroke-linecap="round" stroke-opacity="0.68"/>
  <path d="M106 288C242 214 351 225 468 270C584 314 681 286 770 224C870 154 973 147 1166 213" stroke="#FFFFFF" stroke-width="1" stroke-linecap="round" stroke-opacity="0.18"/>

  <g filter="url(#softShadow)">
    <rect x="76" y="66" width="650" height="226" rx="24" fill="#0B1220" fill-opacity="0.74" stroke="#FFFFFF" stroke-opacity="0.12"/>
    <circle cx="114" cy="105" r="7" fill="#F87171"/>
    <circle cx="138" cy="105" r="7" fill="#FBBF24"/>
    <circle cx="162" cy="105" r="7" fill="#34D399"/>
    <text x="108" y="164" fill="#F9FAFB" font-family="Segoe UI, Helvetica, Arial, sans-serif" font-size="52" font-weight="700" letter-spacing="0">徐同学</text>
    <text x="109" y="204" fill="#A7F3D0" font-family="Consolas, Monaco, monospace" font-size="24">xutongxue233</text>
    <text x="109" y="246" fill="#CBD5E1" font-family="Segoe UI, Helvetica, Arial, sans-serif" font-size="23">AI tools · data systems · full-stack products</text>
  </g>

  <g filter="url(#softShadow)">
    <rect x="806" y="70" width="392" height="220" rx="24" fill="#F8FAFC" fill-opacity="0.92"/>
    <text x="842" y="120" fill="#0F172A" font-family="Segoe UI, Helvetica, Arial, sans-serif" font-size="23" font-weight="700">current focus</text>
    <rect x="842" y="145" width="122" height="32" rx="16" fill="#DBEAFE"/>
    <text x="858" y="167" fill="#1D4ED8" font-family="Segoe UI, Helvetica, Arial, sans-serif" font-size="15" font-weight="700">trend data</text>
    <rect x="978" y="145" width="87" height="32" rx="16" fill="#CCFBF1"/>
    <text x="994" y="167" fill="#0F766E" font-family="Segoe UI, Helvetica, Arial, sans-serif" font-size="15" font-weight="700">AI merge</text>
    <rect x="1079" y="145" width="82" height="32" rx="16" fill="#FEF3C7"/>
    <text x="1095" y="167" fill="#92400E" font-family="Segoe UI, Helvetica, Arial, sans-serif" font-size="15" font-weight="700">systems</text>
    <text x="842" y="214" fill="#334155" font-family="Segoe UI, Helvetica, Arial, sans-serif" font-size="19">Building practical tools that collect,</text>
    <text x="842" y="244" fill="#334155" font-family="Segoe UI, Helvetica, Arial, sans-serif" font-size="19">connect and explain useful data.</text>
  </g>

  <g opacity="0.9">
    <circle cx="966" cy="74" r="4" fill="#2DD4BF"/>
    <circle cx="1045" cy="129" r="4" fill="#FBBF24"/>
    <circle cx="1126" cy="102" r="4" fill="#60A5FA"/>
    <circle cx="610" cy="168" r="4" fill="#2DD4BF"/>
    <circle cx="451" cy="189" r="4" fill="#FBBF24"/>
  </g>
</svg>
